<svg xmlns="http://www.w3.org/2000/svg" viewBox="0 0 96 64" role="img" aria-label="Lab button mark braces slash">
  <g fill="currentColor">
    <path transform="translate(-1.25 0) scale(1.02 1.01)" d="M24.6 8.2c-7.1 0-11.2 4.6-11.2 11.2v7c0 2.9-1.6 5-5.4 6.6a1.6 1.6 0 0 0 0 3c3.8 1.7 5.4 3.8 5.4 6.7v7c0 6.6 4.1 11.2 11.2 11.2h1.9c1 0 1.8-.8 1.8-1.8v-4.1c0-1-.8-1.8-1.8-1.8h-.8c-2.4 0-3.8-1.4-3.8-4v-7.2c0-3.1-1-5.5-3.3-7.1 2.3-1.6 3.3-4 3.3-7.1v-7.2c0-2.6 1.4-4 3.8-4h.8c1 0 1.8-.8 1.8-1.8V10c0-1-.8-1.8-1.8-1.8z"/>
    <path transform="translate(97.25 0) scale(-1.02 1.01)" d="M24.6 8.2c-7.1 0-11.2 4.6-11.2 11.2v7c0 2.9-1.6 5-5.4 6.6a1.6 1.6 0 0 0 0 3c3.8 1.7 5.4 3.8 5.4 6.7v7c0 6.6 4.1 11.2 11.2 11.2h1.9c1 0 1.8-.8 1.8-1.8v-4.1c0-1-.8-1.8-1.8-1.8h-.8c-2.4 0-3.8-1.4-3.8-4v-7.2c0-3.1-1-5.5-3.3-7.1 2.3-1.6 3.3-4 3.3-7.1v-7.2c0-2.6 1.4-4 3.8-4h.8c1 0 1.8-.8 1.8-1.8V10c0-1-.8-1.8-1.8-1.8z"/>
  </g>
  <path d="M55 13.5 39.2 54.6" fill="none" stroke="currentColor" stroke-width="7.6" stroke-linecap="round"/>
</svg>
